{
	"asset":{
		"generator":"Khronos glTF Blender I/O v3.6.27",
		"version":"2.0"
	},
	"extensionsUsed":[
		"KHR_materials_specular",
		"KHR_materials_ior"
	],
	"scene":0,
	"scenes":[
		{
			"name":"Scene",
			"nodes":[
				0,
				1,
				2,
				3,
				4
			]
		}
	],
	"nodes":[
		{
			"mesh":0,
			"name":"Medical_Doctor"
		},
		{
			"mesh":1,
			"name":"Medical_Island",
			"rotation":[
				0,
				0.04361942037940025,
				0,
				0.9990482330322266
			]
		},
		{
			"mesh":2,
			"name":"Medical_hearty",
			"translation":[
				0.33709967136383057,
				3.980393886566162,
				1.3370696306228638
			]
		},
		{
			"mesh":3,
			"name":"Medical_Screens 002",
			"translation":[
				-5.757528305053711,
				0,
				1.1148109436035156
			]
		},
		{
			"mesh":4,
			"name":"Medical_Doctor Lighting001",
			"translation":[
				0.6724395751953125,
				-2.5641160011291504,
				-0.23324954509735107
			]
		}
	],
	"materials":[
		{
			"doubleSided":true,
			"extensions":{
				"KHR_materials_specular":{
					"specularColorFactor":[
						2.371357614441398,
						2.371357614441398,
						2.371357614441398
					]
				},
				"KHR_materials_ior":{
					"ior":1.4500000476837158
				}
			},
			"name":"Medical_Doctor Human",
			"pbrMetallicRoughness":{
				"baseColorTexture":{
					"index":0
				},
				"metallicFactor":0,
				"roughnessFactor":0.9346045851707458
			}
		},
		{
			"doubleSided":true,
			"extensions":{
				"KHR_materials_specular":{
					"specularColorFactor":[
						2.371357614441398,
						2.371357614441398,
						2.371357614441398
					]
				},
				"KHR_materials_ior":{
					"ior":1.4500000476837158
				}
			},
			"name":"Medical Floor Island",
			"pbrMetallicRoughness":{
				"baseColorTexture":{
					"index":1
				},
				"metallicFactor":0,
				"roughnessFactor":0.5527864098548889
			}
		},
		{
			"doubleSided":true,
			"extensions":{
				"KHR_materials_specular":{
					"specularColorFactor":[
						2.371357614441398,
						2.371357614441398,
						2.371357614441398
					]
				},
				"KHR_materials_ior":{
					"ior":1.4500000476837158
				}
			},
			"name":"Medical_Hearty",
			"pbrMetallicRoughness":{
				"baseColorTexture":{
					"index":2
				},
				"metallicFactor":0.2136363685131073,
				"roughnessFactor":0.11642277240753174
			}
		},
		{
			"doubleSided":true,
			"extensions":{
				"KHR_materials_specular":{
					"specularColorFactor":[
						2.371357614441398,
						2.371357614441398,
						2.371357614441398
					]
				},
				"KHR_materials_ior":{
					"ior":1.4500000476837158
				}
			},
			"name":"Medical_Screens 002",
			"pbrMetallicRoughness":{
				"baseColorTexture":{
					"index":3
				},
				"metallicFactor":0,
				"roughnessFactor":0.9118772745132446
			}
		},
		{
			"doubleSided":true,
			"extensions":{
				"KHR_materials_specular":{
					"specularColorFactor":[
						2.371357614441398,
						2.371357614441398,
						2.371357614441398
					]
				},
				"KHR_materials_ior":{
					"ior":1.4500000476837158
				}
			},
			"name":"Medical_Doctor Lighting001",
			"pbrMetallicRoughness":{
				"baseColorTexture":{
					"index":4
				},
				"metallicFactor":0,
				"roughnessFactor":0.8846045732498169
			}
		}
	],
	"meshes":[
		{
			"name":"Mesh",
			"primitives":[
				{
					"attributes":{
						"POSITION":0,
						"NORMAL":1,
						"TEXCOORD_0":2
					},
					"indices":3,
					"material":0
				}
			]
		},
		{
			"name":"Mesh.001",
			"primitives":[
				{
					"attributes":{
						"POSITION":4,
						"NORMAL":5,
						"TEXCOORD_0":6
					},
					"indices":7,
					"material":1
				}
			]
		},
		{
			"name":"Mesh.002",
			"primitives":[
				{
					"attributes":{
						"POSITION":8,
						"NORMAL":9,
						"TEXCOORD_0":10
					},
					"indices":11,
					"material":2
				}
			]
		},
		{
			"name":"Mesh.003",
			"primitives":[
				{
					"attributes":{
						"POSITION":12,
						"NORMAL":13,
						"TEXCOORD_0":14
					},
					"indices":15,
					"material":3
				}
			]
		},
		{
			"name":"Mesh.004",
			"primitives":[
				{
					"attributes":{
						"POSITION":16,
						"NORMAL":17,
						"TEXCOORD_0":18
					},
					"indices":19,
					"material":4
				}
			]
		}
	],
	"textures":[
		{
			"sampler":0,
			"source":0
		},
		{
			"sampler":0,
			"source":1
		},
		{
			"sampler":0,
			"source":2
		},
		{
			"sampler":0,
			"source":3
		},
		{
			"sampler":0,
			"source":4
		}
	],
	"images":[
		{
			"mimeType":"image/png",
			"name":"Map #21",
			"uri":"Map%2021.png"
		},
		{
			"mimeType":"image/jpeg",
			"name":"Volumetric_OR_Room2 copy",
			"uri":"Volumetric_OR_Room2%20copy.jpg"
		},
		{
			"mimeType":"image/png",
			"name":"Map #22-Map #23",
			"uri":"Map%2022-Map%2023.png"
		},
		{
			"mimeType":"image/jpeg",
			"name":"Medical_Screens 002",
			"uri":"Medical_Screens%20002.jpg"
		},
		{
			"mimeType":"image/jpeg",
			"name":"Medical_Doctor Lighting001",
			"uri":"Medical_Doctor%20Lighting001.jpg"
		}
	],
	"accessors":[
		{
			"bufferView":0,
			"componentType":5126,
			"count":27465,
			"max":[
				1.142716646194458,
				7.610883712768555,
				1.2669428586959839
			],
			"min":[
				-1.7194451093673706,
				-0.01995331607758999,
				-1.185073733329773
			],
			"type":"VEC3"
		},
		{
			"bufferView":1,
			"componentType":5126,
			"count":27465,
			"type":"VEC3"
		},
		{
			"bufferView":2,
			"componentType":5126,
			"count":27465,
			"type":"VEC2"
		},
		{
			"bufferView":3,
			"componentType":5123,
			"count":149994,
			"type":"SCALAR"
		},
		{
			"bufferView":4,
			"componentType":5126,
			"count":513,
			"max":[
				8.193653106689453,
				1.0376005548096146e-06,
				8.193653106689453
			],
			"min":[
				-8.193655014038086,
				-1.608267903327942,
				-8.193652153015137
			],
			"type":"VEC3"
		},
		{
			"bufferView":5,
			"componentType":5126,
			"count":513,
			"type":"VEC3"
		},
		{
			"bufferView":6,
			"componentType":5126,
			"count":513,
			"type":"VEC2"
		},
		{
			"bufferView":7,
			"componentType":5123,
			"count":2298,
			"type":"SCALAR"
		},
		{
			"bufferView":8,
			"componentType":5126,
			"count":11532,
			"max":[
				1.0138520002365112,
				1.1072587966918945,
				0.6873566508293152
			],
			"min":[
				-1.9933435916900635,
				-1.0158157348632812,
				-0.9707372784614563
			],
			"type":"VEC3"
		},
		{
			"bufferView":9,
			"componentType":5126,
			"count":11532,
			"type":"VEC3"
		},
		{
			"bufferView":10,
			"componentType":5126,
			"count":11532,
			"type":"VEC2"
		},
		{
			"bufferView":11,
			"componentType":5123,
			"count":51024,
			"type":"SCALAR"
		},
		{
			"bufferView":12,
			"componentType":5126,
			"count":29926,
			"max":[
				9.375842094421387,
				13.062192916870117,
				-3.1085636615753174
			],
			"min":[
				-5.333985328674316,
				-0.0015721321105957031,
				-9.471294403076172
			],
			"type":"VEC3"
		},
		{
			"bufferView":13,
			"componentType":5126,
			"count":29926,
			"type":"VEC3"
		},
		{
			"bufferView":14,
			"componentType":5126,
			"count":29926,
			"type":"VEC2"
		},
		{
			"bufferView":15,
			"componentType":5123,
			"count":88209,
			"type":"SCALAR"
		},
		{
			"bufferView":16,
			"componentType":5126,
			"count":6604,
			"max":[
				4.288681507110596,
				16.468095779418945,
				7.931384086608887
			],
			"min":[
				-9.063261985778809,
				8.594797134399414,
				-6.001856803894043
			],
			"type":"VEC3"
		},
		{
			"bufferView":17,
			"componentType":5126,
			"count":6604,
			"type":"VEC3"
		},
		{
			"bufferView":18,
			"componentType":5126,
			"count":6604,
			"type":"VEC2"
		},
		{
			"bufferView":19,
			"componentType":5123,
			"count":18786,
			"type":"SCALAR"
		}
	],
	"bufferViews":[
		{
			"buffer":0,
			"byteLength":329580,
			"byteOffset":0,
			"target":34962
		},
		{
			"buffer":0,
			"byteLength":329580,
			"byteOffset":329580,
			"target":34962
		},
		{
			"buffer":0,
			"byteLength":219720,
			"byteOffset":659160,
			"target":34962
		},
		{
			"buffer":0,
			"byteLength":299988,
			"byteOffset":878880,
			"target":34963
		},
		{
			"buffer":0,
			"byteLength":6156,
			"byteOffset":1178868,
			"target":34962
		},
		{
			"buffer":0,
			"byteLength":6156,
			"byteOffset":1185024,
			"target":34962
		},
		{
			"buffer":0,
			"byteLength":4104,
			"byteOffset":1191180,
			"target":34962
		},
		{
			"buffer":0,
			"byteLength":4596,
			"byteOffset":1195284,
			"target":34963
		},
		{
			"buffer":0,
			"byteLength":138384,
			"byteOffset":1199880,
			"target":34962
		},
		{
			"buffer":0,
			"byteLength":138384,
			"byteOffset":1338264,
			"target":34962
		},
		{
			"buffer":0,
			"byteLength":92256,
			"byteOffset":1476648,
			"target":34962
		},
		{
			"buffer":0,
			"byteLength":102048,
			"byteOffset":1568904,
			"target":34963
		},
		{
			"buffer":0,
			"byteLength":359112,
			"byteOffset":1670952,
			"target":34962
		},
		{
			"buffer":0,
			"byteLength":359112,
			"byteOffset":2030064,
			"target":34962
		},
		{
			"buffer":0,
			"byteLength":239408,
			"byteOffset":2389176,
			"target":34962
		},
		{
			"buffer":0,
			"byteLength":176418,
			"byteOffset":2628584,
			"target":34963
		},
		{
			"buffer":0,
			"byteLength":79248,
			"byteOffset":2805004,
			"target":34962
		},
		{
			"buffer":0,
			"byteLength":79248,
			"byteOffset":2884252,
			"target":34962
		},
		{
			"buffer":0,
			"byteLength":52832,
			"byteOffset":2963500,
			"target":34962
		},
		{
			"buffer":0,
			"byteLength":37572,
			"byteOffset":3016332,
			"target":34963
		}
	],
	"samplers":[
		{
			"magFilter":9729,
			"minFilter":9987
		}
	],
	"buffers":[
		{
			"byteLength":3053904,
			"uri":"untitled.bin"
		}
	]
}
