{
  "accessors": [
    {
      "bufferView": 0,
      "componentType": 5125,
      "count": 824751,
      "type": "SCALAR"
    },
    {
      "bufferView": 1,
      "componentType": 5126,
      "count": 143385,
      "max": [0.488613724708557, -0.0118264332413673, 0.491394191980362],
      "min": [-0.496601194143295, -0.169955641031265, -0.486427545547485],
      "type": "VEC3"
    },
    {
      "bufferView": 2,
      "componentType": 5126,
      "count": 143385,
      "type": "VEC3"
    },
    {
      "bufferView": 3,
      "componentType": 5126,
      "count": 143385,
      "type": "VEC4"
    },
    {
      "bufferView": 4,
      "componentType": 5126,
      "count": 143385,
      "type": "VEC2"
    }
  ],
  "asset": {
    "generator": "Adobe Substance 3D Painter 8.1.2",
    "version": "2.0"
  },
  "bufferViews": [
    {
      "buffer": 0,
      "byteLength": 3299004,
      "target": 34963
    },
    {
      "buffer": 0,
      "byteLength": 1720620,
      "byteOffset": 3299004,
      "target": 34962
    },
    {
      "buffer": 0,
      "byteLength": 1720620,
      "byteOffset": 5019624,
      "target": 34962
    },
    {
      "buffer": 0,
      "byteLength": 2294160,
      "byteOffset": 6740244,
      "target": 34962
    },
    {
      "buffer": 0,
      "byteLength": 1147080,
      "byteOffset": 9034404,
      "target": 34962
    }
  ],
  "buffers": [
    {
      "byteLength": 10181484,
      "uri": "./Island test .bin"
    }
  ],
  "images": [
    {
      "uri": "textures/Island test material_baseColor.png"
    }
  ],
  "materials": [
    {
      "alphaMode": "OPAQUE",
      "name": "Island test material",
      "pbrMetallicRoughness": {
        "baseColorTexture": {
          "index": 0
        }
      }
    }
  ],
  "meshes": [
    {
      "name": "TerrainMesh",
      "primitives": [
        {
          "attributes": {
            "NORMAL": 2,
            "POSITION": 1,
            "TANGENT": 3,
            "TEXCOORD_0": 4
          },
          "indices": 0,
          "material": 0,
          "mode": 4
        }
      ]
    }
  ],
  "nodes": [
    {
      "children": [1],
      "name": "RootNode"
    },
    {
      "children": [2],
      "name": "TerrainMesh",
      "rotation": [
        0.737277328968048, -2.24387914894521e-24, 0.67559027671814,
        -4.51452149623189e-17
      ],
      "scale": [99.9999923706055, 100.0, 99.9999923706055],
      "translation": [4.76218700408936, -1.61822211742401, -4.22811412811279]
    },
    {
      "mesh": 0,
      "name": "TerrainMesh"
    }
  ],
  "samplers": [
    {
      "magFilter": 9729,
      "minFilter": 9985,
      "wrapS": 10497,
      "wrapT": 10497
    }
  ],
  "scene": 0,
  "scenes": [
    {
      "name": "Scene",
      "nodes": [0]
    }
  ],
  "textures": [
    {
      "sampler": 0,
      "source": 0
    }
  ]
}
