{
  "accessors": [
    {
      "bufferView": 0,
      "componentType": 5125,
      "count": 49569,
      "type": "SCALAR"
    },
    {
      "bufferView": 1,
      "componentType": 5126,
      "count": 20586,
      "max": [
        171.600082397461,
        423.500305175781,
        493.223388671875
      ],
      "min": [
        -171.600082397461,
        155.000091552734,
        -364.400207519531
      ],
      "type": "VEC3"
    },
    {
      "bufferView": 2,
      "componentType": 5126,
      "count": 20586,
      "type": "VEC3"
    },
    {
      "bufferView": 3,
      "componentType": 5126,
      "count": 20586,
      "type": "VEC4"
    },
    {
      "bufferView": 4,
      "componentType": 5126,
      "count": 20586,
      "type": "VEC2"
    },
    {
      "bufferView": 5,
      "componentType": 5125,
      "count": 8256,
      "type": "SCALAR"
    },
    {
      "bufferView": 6,
      "componentType": 5126,
      "count": 2828,
      "max": [
        176.200088500977,
        125.900123596191,
        281.600189208984
      ],
      "min": [
        -176.200088500977,
        -0.300018310546875,
        -444.700225830078
      ],
      "type": "VEC3"
    },
    {
      "bufferView": 7,
      "componentType": 5126,
      "count": 2828,
      "type": "VEC3"
    },
    {
      "bufferView": 8,
      "componentType": 5126,
      "count": 2828,
      "type": "VEC4"
    },
    {
      "bufferView": 9,
      "componentType": 5126,
      "count": 2828,
      "type": "VEC2"
    },
    {
      "bufferView": 10,
      "componentType": 5125,
      "count": 46218,
      "type": "SCALAR"
    },
    {
      "bufferView": 11,
      "componentType": 5126,
      "count": 16283,
      "max": [
        172.300094604492,
        126.300117492676,
        274.200164794922
      ],
      "min": [
        -172.200088500977,
        6.39997863769531,
        -442.700225830078
      ],
      "type": "VEC3"
    },
    {
      "bufferView": 12,
      "componentType": 5126,
      "count": 16283,
      "type": "VEC3"
    },
    {
      "bufferView": 13,
      "componentType": 5126,
      "count": 16283,
      "type": "VEC4"
    },
    {
      "bufferView": 14,
      "componentType": 5126,
      "count": 16283,
      "type": "VEC2"
    },
    {
      "bufferView": 15,
      "componentType": 5125,
      "count": 58131,
      "type": "SCALAR"
    },
    {
      "bufferView": 16,
      "componentType": 5126,
      "count": 24355,
      "max": [
        214.600112915039,
        181.500152587891,
        326.300170898438
      ],
      "min": [
        -214.600112915039,
        47.5000152587891,
        -507.300231933594
      ],
      "type": "VEC3"
    },
    {
      "bufferView": 17,
      "componentType": 5126,
      "count": 24355,
      "type": "VEC3"
    },
    {
      "bufferView": 18,
      "componentType": 5126,
      "count": 24355,
      "type": "VEC4"
    },
    {
      "bufferView": 19,
      "componentType": 5126,
      "count": 24355,
      "type": "VEC2"
    },
    {
      "bufferView": 20,
      "componentType": 5125,
      "count": 2454,
      "type": "SCALAR"
    },
    {
      "bufferView": 21,
      "componentType": 5126,
      "count": 2081,
      "max": [
        101.987899780273,
        289.791748046875,
        -53.1856651306152
      ],
      "min": [
        -60.0011901855469,
        244.688949584961,
        -208.787551879883
      ],
      "type": "VEC3"
    },
    {
      "bufferView": 22,
      "componentType": 5126,
      "count": 2081,
      "type": "VEC3"
    },
    {
      "bufferView": 23,
      "componentType": 5126,
      "count": 2081,
      "type": "VEC4"
    },
    {
      "bufferView": 24,
      "componentType": 5126,
      "count": 2081,
      "type": "VEC2"
    },
    {
      "bufferView": 25,
      "componentType": 5125,
      "count": 882,
      "type": "SCALAR"
    },
    {
      "bufferView": 26,
      "componentType": 5126,
      "count": 504,
      "max": [
        93.1009902954102,
        143.369934082031,
        306.574798583984
      ],
      "min": [
        -93.1009902954102,
        120.11653137207,
        269.524017333984
      ],
      "type": "VEC3"
    },
    {
      "bufferView": 27,
      "componentType": 5126,
      "count": 504,
      "type": "VEC3"
    },
    {
      "bufferView": 28,
      "componentType": 5126,
      "count": 504,
      "type": "VEC4"
    },
    {
      "bufferView": 29,
      "componentType": 5126,
      "count": 504,
      "type": "VEC2"
    }
  ],
  "asset": {
    "generator": "Adobe Substance 3D Painter 9.0.0",
    "version": "2.0"
  },
  "bufferViews": [
    {
      "buffer": 0,
      "byteLength": 198276,
      "target": 34963
    },
    {
      "buffer": 0,
      "byteLength": 247032,
      "byteOffset": 198276,
      "target": 34962
    },
    {
      "buffer": 0,
      "byteLength": 247032,
      "byteOffset": 445308,
      "target": 34962
    },
    {
      "buffer": 0,
      "byteLength": 329376,
      "byteOffset": 692340,
      "target": 34962
    },
    {
      "buffer": 0,
      "byteLength": 164688,
      "byteOffset": 1021716,
      "target": 34962
    },
    {
      "buffer": 0,
      "byteLength": 33024,
      "byteOffset": 1186404,
      "target": 34963
    },
    {
      "buffer": 0,
      "byteLength": 33936,
      "byteOffset": 1219428,
      "target": 34962
    },
    {
      "buffer": 0,
      "byteLength": 33936,
      "byteOffset": 1253364,
      "target": 34962
    },
    {
      "buffer": 0,
      "byteLength": 45248,
      "byteOffset": 1287300,
      "target": 34962
    },
    {
      "buffer": 0,
      "byteLength": 22624,
      "byteOffset": 1332548,
      "target": 34962
    },
    {
      "buffer": 0,
      "byteLength": 184872,
      "byteOffset": 1355172,
      "target": 34963
    },
    {
      "buffer": 0,
      "byteLength": 195396,
      "byteOffset": 1540044,
      "target": 34962
    },
    {
      "buffer": 0,
      "byteLength": 195396,
      "byteOffset": 1735440,
      "target": 34962
    },
    {
      "buffer": 0,
      "byteLength": 260528,
      "byteOffset": 1930836,
      "target": 34962
    },
    {
      "buffer": 0,
      "byteLength": 130264,
      "byteOffset": 2191364,
      "target": 34962
    },
    {
      "buffer": 0,
      "byteLength": 232524,
      "byteOffset": 2321628,
      "target": 34963
    },
    {
      "buffer": 0,
      "byteLength": 292260,
      "byteOffset": 2554152,
      "target": 34962
    },
    {
      "buffer": 0,
      "byteLength": 292260,
      "byteOffset": 2846412,
      "target": 34962
    },
    {
      "buffer": 0,
      "byteLength": 389680,
      "byteOffset": 3138672,
      "target": 34962
    },
    {
      "buffer": 0,
      "byteLength": 194840,
      "byteOffset": 3528352,
      "target": 34962
    },
    {
      "buffer": 0,
      "byteLength": 9816,
      "byteOffset": 3723192,
      "target": 34963
    },
    {
      "buffer": 0,
      "byteLength": 24972,
      "byteOffset": 3733008,
      "target": 34962
    },
    {
      "buffer": 0,
      "byteLength": 24972,
      "byteOffset": 3757980,
      "target": 34962
    },
    {
      "buffer": 0,
      "byteLength": 33296,
      "byteOffset": 3782952,
      "target": 34962
    },
    {
      "buffer": 0,
      "byteLength": 16648,
      "byteOffset": 3816248,
      "target": 34962
    },
    {
      "buffer": 0,
      "byteLength": 3528,
      "byteOffset": 3832896,
      "target": 34963
    },
    {
      "buffer": 0,
      "byteLength": 6048,
      "byteOffset": 3836424,
      "target": 34962
    },
    {
      "buffer": 0,
      "byteLength": 6048,
      "byteOffset": 3842472,
      "target": 34962
    },
    {
      "buffer": 0,
      "byteLength": 8064,
      "byteOffset": 3848520,
      "target": 34962
    },
    {
      "buffer": 0,
      "byteLength": 4032,
      "byteOffset": 3856584,
      "target": 34962
    }
  ],
  "buffers": [
    {
      "byteLength": 3860616,
      "uri": "tanky future new.bin"
    }
  ],
  "images": [
    {
      "uri": "Tanky_baseColor.png"
    },
    {
      "uri": "Tanky_occlusionRoughnessMetallic.png"
    },
    {
      "uri": "Tanky_normal.png"
    },
    {
      "uri": "Tanky_emissive.png"
    }
  ],
  "materials": [
    {
      "alphaMode": "OPAQUE",
      "emissiveFactor": [
        1.0,
        1.0,
        1.0
      ],
      "emissiveTexture": {
        "index": 3
      },
      "name": "Tanky",
      "normalTexture": {
        "index": 2
      },
      "occlusionTexture": {
        "index": 1
      },
      "pbrMetallicRoughness": {
        "baseColorTexture": {
          "index": 0
        },
        "metallicRoughnessTexture": {
          "index": 1
        }
      }
    }
  ],
  "meshes": [
    {
      "name": "Tanky_Turret",
      "primitives": [
        {
          "attributes": {
            "NORMAL": 2,
            "POSITION": 1,
            "TANGENT": 3,
            "TEXCOORD_0": 4
          },
          "indices": 0,
          "material": 0,
          "mode": 4
        }
      ]
    },
    {
      "name": "Tanky_Chain",
      "primitives": [
        {
          "attributes": {
            "NORMAL": 7,
            "POSITION": 6,
            "TANGENT": 8,
            "TEXCOORD_0": 9
          },
          "indices": 5,
          "material": 0,
          "mode": 4
        }
      ]
    },
    {
      "name": "Tanky_Wheels",
      "primitives": [
        {
          "attributes": {
            "NORMAL": 12,
            "POSITION": 11,
            "TANGENT": 13,
            "TEXCOORD_0": 14
          },
          "indices": 10,
          "material": 0,
          "mode": 4
        }
      ]
    },
    {
      "name": "Tanky_Body",
      "primitives": [
        {
          "attributes": {
            "NORMAL": 17,
            "POSITION": 16,
            "TANGENT": 18,
            "TEXCOORD_0": 19
          },
          "indices": 15,
          "material": 0,
          "mode": 4
        }
      ]
    },
    {
      "name": "Object001",
      "primitives": [
        {
          "attributes": {
            "NORMAL": 22,
            "POSITION": 21,
            "TANGENT": 23,
            "TEXCOORD_0": 24
          },
          "indices": 20,
          "material": 0,
          "mode": 4
        }
      ]
    },
    {
      "name": "Object002",
      "primitives": [
        {
          "attributes": {
            "NORMAL": 27,
            "POSITION": 26,
            "TANGENT": 28,
            "TEXCOORD_0": 29
          },
          "indices": 25,
          "material": 0,
          "mode": 4
        }
      ]
    }
  ],
  "nodes": [
    {
      "children": [
        1,
        3,
        5,
        7,
        9,
        11
      ],
      "name": "RootNode"
    },
    {
      "children": [
        2
      ],
      "name": "Tanky_Turret",
      "rotation": [
        2.1855694143369e-08,
        0.0,
        0.0,
        1.0
      ]
    },
    {
      "mesh": 0,
      "name": "Tanky_Turret"
    },
    {
      "children": [
        4
      ],
      "name": "Tanky_Chain",
      "rotation": [
        2.1855694143369e-08,
        0.0,
        0.0,
        1.0
      ]
    },
    {
      "mesh": 1,
      "name": "Tanky_Chain"
    },
    {
      "children": [
        6
      ],
      "name": "Tanky_Wheels",
      "rotation": [
        2.1855694143369e-08,
        0.0,
        0.0,
        1.0
      ]
    },
    {
      "mesh": 2,
      "name": "Tanky_Wheels"
    },
    {
      "children": [
        8
      ],
      "name": "Tanky_Body",
      "rotation": [
        2.1855694143369e-08,
        0.0,
        0.0,
        1.0
      ]
    },
    {
      "mesh": 3,
      "name": "Tanky_Body"
    },
    {
      "children": [
        10
      ],
      "name": "Object001",
      "rotation": [
        8.14603424714733e-08,
        0.0,
        0.0,
        1.0
      ]
    },
    {
      "mesh": 4,
      "name": "Object001"
    },
    {
      "children": [
        12
      ],
      "name": "Object002",
      "rotation": [
        8.14603424714733e-08,
        0.0,
        0.0,
        1.0
      ]
    },
    {
      "mesh": 5,
      "name": "Object002"
    }
  ],
  "samplers": [
    {
      "magFilter": 9729,
      "minFilter": 9985,
      "wrapS": 10497,
      "wrapT": 10497
    }
  ],
  "scene": 0,
  "scenes": [
    {
      "name": "Scene",
      "nodes": [
        0
      ]
    }
  ],
  "textures": [
    {
      "sampler": 0,
      "source": 0
    },
    {
      "sampler": 0,
      "source": 1
    },
    {
      "sampler": 0,
      "source": 2
    },
    {
      "sampler": 0,
      "source": 3
    }
  ]
}