{
	"asset":{
		"generator":"Khronos glTF Blender I/O v3.6.27",
		"version":"2.0"
	},
	"extensionsUsed":[
		"KHR_materials_specular",
		"KHR_materials_ior"
	],
	"scene":0,
	"scenes":[
		{
			"name":"Scene",
			"nodes":[
				0,
				1,
				2,
				3
			]
		}
	],
	"nodes":[
		{
			"mesh":0,
			"name":"Tank_Terrain Low",
			"scale":[
				10,
				10,
				10
			]
		},
		{
			"mesh":1,
			"name":"Tanky_Body",
			"translation":[
				1.5255950689315796,
				1.3959975242614746,
				0.13194330036640167
			]
		},
		{
			"mesh":2,
			"name":"Dust_2"
		},
		{
			"mesh":3,
			"name":"Dust"
		}
	],
	"animations":[
		{
			"channels":[
				{
					"sampler":0,
					"target":{
						"node":0,
						"path":"translation"
					}
				},
				{
					"sampler":1,
					"target":{
						"node":0,
						"path":"rotation"
					}
				},
				{
					"sampler":2,
					"target":{
						"node":0,
						"path":"scale"
					}
				}
			],
			"name":"Tank_Terrain Low|Take 001|BaseLayer",
			"samplers":[
				{
					"input":17,
					"interpolation":"LINEAR",
					"output":18
				},
				{
					"input":17,
					"interpolation":"LINEAR",
					"output":19
				},
				{
					"input":17,
					"interpolation":"LINEAR",
					"output":20
				}
			]
		},
		{
			"channels":[
				{
					"sampler":0,
					"target":{
						"node":1,
						"path":"translation"
					}
				},
				{
					"sampler":1,
					"target":{
						"node":1,
						"path":"rotation"
					}
				},
				{
					"sampler":2,
					"target":{
						"node":1,
						"path":"scale"
					}
				}
			],
			"name":"Tanky_Body|Take 001|BaseLayer",
			"samplers":[
				{
					"input":17,
					"interpolation":"LINEAR",
					"output":21
				},
				{
					"input":17,
					"interpolation":"LINEAR",
					"output":22
				},
				{
					"input":17,
					"interpolation":"LINEAR",
					"output":23
				}
			]
		}
	],
	"materials":[
		{
			"doubleSided":true,
			"extensions":{
				"KHR_materials_specular":{
					"specularColorFactor":[
						0.474271529955476,
						0.474271529955476,
						0.474271529955476
					]
				},
				"KHR_materials_ior":{
					"ior":1.4500000476837158
				}
			},
			"name":"Tank Terrain",
			"normalTexture":{
				"index":0
			},
			"pbrMetallicRoughness":{
				"baseColorTexture":{
					"index":1
				},
				"metallicRoughnessTexture":{
					"index":2
				}
			}
		},
		{
			"doubleSided":true,
			"extensions":{
				"KHR_materials_specular":{
					"specularColorFactor":[
						0.237135764977738,
						0.237135764977738,
						0.237135764977738
					]
				},
				"KHR_materials_ior":{
					"ior":1.4500000476837158
				}
			},
			"name":"Tanky",
			"normalTexture":{
				"index":3,
				"scale":0.10000000149011612
			},
			"pbrMetallicRoughness":{
				"baseColorTexture":{
					"index":4
				},
				"metallicRoughnessTexture":{
					"index":5
				}
			}
		},
		{
			"alphaMode":"BLEND",
			"doubleSided":true,
			"extensions":{
				"KHR_materials_specular":{
					"specularColorFactor":[
						2.371357614441398,
						2.371357614441398,
						2.371357614441398
					]
				},
				"KHR_materials_ior":{
					"ior":1.4500000476837158
				}
			},
			"name":"Dust 2",
			"pbrMetallicRoughness":{
				"baseColorFactor":[
					0.4745098054409027,
					0.33725491166114807,
					0.20392157137393951,
					1
				],
				"baseColorTexture":{
					"index":6
				},
				"metallicFactor":0,
				"roughnessFactor":0.5527864098548889
			}
		},
		{
			"alphaMode":"BLEND",
			"doubleSided":true,
			"extensions":{
				"KHR_materials_specular":{
					"specularColorFactor":[
						2.371357614441398,
						2.371357614441398,
						2.371357614441398
					]
				},
				"KHR_materials_ior":{
					"ior":1.4500000476837158
				}
			},
			"name":"Dust",
			"pbrMetallicRoughness":{
				"baseColorFactor":[
					0.4745098054409027,
					0.33725491166114807,
					0.20392157137393951,
					1
				],
				"baseColorTexture":{
					"index":7
				},
				"metallicFactor":0,
				"roughnessFactor":0.5527864098548889
			}
		}
	],
	"meshes":[
		{
			"name":"Mesh",
			"primitives":[
				{
					"attributes":{
						"COLOR_0":0,
						"POSITION":1,
						"NORMAL":2,
						"TEXCOORD_0":3
					},
					"indices":4,
					"material":0
				}
			]
		},
		{
			"name":"Mesh.001",
			"primitives":[
				{
					"attributes":{
						"POSITION":5,
						"NORMAL":6,
						"TEXCOORD_0":7
					},
					"indices":8,
					"material":1
				}
			]
		},
		{
			"name":"Mesh.002",
			"primitives":[
				{
					"attributes":{
						"POSITION":9,
						"NORMAL":10,
						"TEXCOORD_0":11
					},
					"indices":12,
					"material":2
				}
			]
		},
		{
			"name":"Mesh.003",
			"primitives":[
				{
					"attributes":{
						"POSITION":13,
						"NORMAL":14,
						"TEXCOORD_0":15
					},
					"indices":16,
					"material":3
				}
			]
		}
	],
	"textures":[
		{
			"sampler":0,
			"source":0
		},
		{
			"sampler":0,
			"source":1
		},
		{
			"sampler":0,
			"source":2
		},
		{
			"sampler":0,
			"source":3
		},
		{
			"sampler":0,
			"source":4
		},
		{
			"sampler":0,
			"source":5
		},
		{
			"sampler":0,
			"source":6
		},
		{
			"sampler":0,
			"source":7
		}
	],
	"images":[
		{
			"mimeType":"image/png",
			"name":"Tank_Terrain1_mat_normal",
			"uri":"Tank_Terrain1_mat_normal.png"
		},
		{
			"mimeType":"image/png",
			"name":"Tank_Terrain1_mat_baseColor",
			"uri":"Tank_Terrain1_mat_baseColor.png"
		},
		{
			"mimeType":"image/png",
			"name":"Tank_Terrain1_mat_occlusionRoughnessMetallic",
			"uri":"Tank_Terrain1_mat_occlusionRoughnessMetallic.png"
		},
		{
			"mimeType":"image/png",
			"name":"Tanky_normal",
			"uri":"Tanky_normal.png"
		},
		{
			"mimeType":"image/png",
			"name":"Tanky_baseColor",
			"uri":"Tanky_baseColor.png"
		},
		{
			"mimeType":"image/png",
			"name":"Tanky_occlusionRoughnessMetallic",
			"uri":"Tanky_occlusionRoughnessMetallic.png"
		},
		{
			"mimeType":"image/png",
			"name":"dust 2",
			"uri":"dust%202.png"
		},
		{
			"mimeType":"image/png",
			"name":"dust 1",
			"uri":"dust%201.png"
		}
	],
	"accessors":[
		{
			"bufferView":0,
			"componentType":5123,
			"count":1311,
			"normalized":true,
			"type":"VEC4"
		},
		{
			"bufferView":1,
			"componentType":5126,
			"count":1311,
			"max":[
				1.0129520893096924,
				0.24271586537361145,
				1.0174933671951294
			],
			"min":[
				-1.0107471942901611,
				-0.7355685830116272,
				-1.0050840377807617
			],
			"type":"VEC3"
		},
		{
			"bufferView":2,
			"componentType":5126,
			"count":1311,
			"type":"VEC3"
		},
		{
			"bufferView":3,
			"componentType":5126,
			"count":1311,
			"type":"VEC2"
		},
		{
			"bufferView":4,
			"componentType":5123,
			"count":7488,
			"type":"SCALAR"
		},
		{
			"bufferView":5,
			"componentType":5126,
			"count":67360,
			"max":[
				4.780572891235352,
				5.677820205688477,
				5.954488277435303
			],
			"min":[
				-5.8471527099609375,
				-0.19243817031383514,
				-4.89259672164917
			],
			"type":"VEC3"
		},
		{
			"bufferView":6,
			"componentType":5126,
			"count":67360,
			"type":"VEC3"
		},
		{
			"bufferView":7,
			"componentType":5126,
			"count":67360,
			"type":"VEC2"
		},
		{
			"bufferView":8,
			"componentType":5125,
			"count":169470,
			"type":"SCALAR"
		},
		{
			"bufferView":9,
			"componentType":5126,
			"count":24,
			"max":[
				9.880082130432129,
				5.894700050354004,
				7.267878532409668
			],
			"min":[
				-9.561504364013672,
				-8.311233520507812,
				-5.672260284423828
			],
			"type":"VEC3"
		},
		{
			"bufferView":10,
			"componentType":5126,
			"count":24,
			"type":"VEC3"
		},
		{
			"bufferView":11,
			"componentType":5126,
			"count":24,
			"type":"VEC2"
		},
		{
			"bufferView":12,
			"componentType":5123,
			"count":60,
			"type":"SCALAR"
		},
		{
			"bufferView":13,
			"componentType":5126,
			"count":52,
			"max":[
				8.109192848205566,
				5.95262336730957,
				11.76978874206543
			],
			"min":[
				-7.193023204803467,
				-6.432933330535889,
				-4.209314823150635
			],
			"type":"VEC3"
		},
		{
			"bufferView":14,
			"componentType":5126,
			"count":52,
			"type":"VEC3"
		},
		{
			"bufferView":15,
			"componentType":5126,
			"count":52,
			"type":"VEC2"
		},
		{
			"bufferView":16,
			"componentType":5123,
			"count":114,
			"type":"SCALAR"
		},
		{
			"bufferView":17,
			"componentType":5126,
			"count":1,
			"max":[
				0.03333333333333333
			],
			"min":[
				0.03333333333333333
			],
			"type":"SCALAR"
		},
		{
			"bufferView":18,
			"componentType":5126,
			"count":1,
			"type":"VEC3"
		},
		{
			"bufferView":19,
			"componentType":5126,
			"count":1,
			"type":"VEC4"
		},
		{
			"bufferView":20,
			"componentType":5126,
			"count":1,
			"type":"VEC3"
		},
		{
			"bufferView":21,
			"componentType":5126,
			"count":1,
			"type":"VEC3"
		},
		{
			"bufferView":22,
			"componentType":5126,
			"count":1,
			"type":"VEC4"
		},
		{
			"bufferView":23,
			"componentType":5126,
			"count":1,
			"type":"VEC3"
		}
	],
	"bufferViews":[
		{
			"buffer":0,
			"byteLength":10488,
			"byteOffset":0,
			"target":34962
		},
		{
			"buffer":0,
			"byteLength":15732,
			"byteOffset":10488,
			"target":34962
		},
		{
			"buffer":0,
			"byteLength":15732,
			"byteOffset":26220,
			"target":34962
		},
		{
			"buffer":0,
			"byteLength":10488,
			"byteOffset":41952,
			"target":34962
		},
		{
			"buffer":0,
			"byteLength":14976,
			"byteOffset":52440,
			"target":34963
		},
		{
			"buffer":0,
			"byteLength":808320,
			"byteOffset":67416,
			"target":34962
		},
		{
			"buffer":0,
			"byteLength":808320,
			"byteOffset":875736,
			"target":34962
		},
		{
			"buffer":0,
			"byteLength":538880,
			"byteOffset":1684056,
			"target":34962
		},
		{
			"buffer":0,
			"byteLength":677880,
			"byteOffset":2222936,
			"target":34963
		},
		{
			"buffer":0,
			"byteLength":288,
			"byteOffset":2900816,
			"target":34962
		},
		{
			"buffer":0,
			"byteLength":288,
			"byteOffset":2901104,
			"target":34962
		},
		{
			"buffer":0,
			"byteLength":192,
			"byteOffset":2901392,
			"target":34962
		},
		{
			"buffer":0,
			"byteLength":120,
			"byteOffset":2901584,
			"target":34963
		},
		{
			"buffer":0,
			"byteLength":624,
			"byteOffset":2901704,
			"target":34962
		},
		{
			"buffer":0,
			"byteLength":624,
			"byteOffset":2902328,
			"target":34962
		},
		{
			"buffer":0,
			"byteLength":416,
			"byteOffset":2902952,
			"target":34962
		},
		{
			"buffer":0,
			"byteLength":228,
			"byteOffset":2903368,
			"target":34963
		},
		{
			"buffer":0,
			"byteLength":4,
			"byteOffset":2903596
		},
		{
			"buffer":0,
			"byteLength":12,
			"byteOffset":2903600
		},
		{
			"buffer":0,
			"byteLength":16,
			"byteOffset":2903612
		},
		{
			"buffer":0,
			"byteLength":12,
			"byteOffset":2903628
		},
		{
			"buffer":0,
			"byteLength":12,
			"byteOffset":2903640
		},
		{
			"buffer":0,
			"byteLength":16,
			"byteOffset":2903652
		},
		{
			"buffer":0,
			"byteLength":12,
			"byteOffset":2903668
		}
	],
	"samplers":[
		{
			"magFilter":9729,
			"minFilter":9987
		}
	],
	"buffers":[
		{
			"byteLength":2903680,
			"uri":"tank%20island%20material%20to%20gltf%20.bin"
		}
	]
}
