{
  "accessors": [
    {
      "bufferView": 0,
      "componentType": 5126,
      "count": 1128,
      "max": [6.386053085327148, 166.10328674316406, 10.537530899047852],
      "min": [-9.918221473693848, 152.462646484375, -4.870017051696777],
      "type": "VEC3"
    },
    {
      "bufferView": 0,
      "byteOffset": 12,
      "componentType": 5126,
      "count": 1128,
      "type": "VEC3"
    },
    {
      "bufferView": 1,
      "componentType": 5125,
      "count": 5448,
      "type": "SCALAR"
    },
    {
      "bufferView": 2,
      "componentType": 5126,
      "count": 7692,
      "max": [29.244583129882813, 169.342529296875, 29.331205368041992],
      "min": [-26.738998413085938, 104.22834777832031, -15.322359085083008],
      "type": "VEC3"
    },
    {
      "bufferView": 2,
      "byteOffset": 12,
      "componentType": 5126,
      "count": 7692,
      "type": "VEC3"
    },
    {
      "bufferView": 3,
      "componentType": 5125,
      "count": 42600,
      "type": "SCALAR"
    },
    {
      "bufferView": 4,
      "componentType": 5126,
      "count": 490,
      "max": [6.636562347412109, 176.7964630126953, 7.86249303817749],
      "min": [-10.588377952575684, 160.7076873779297, -12.113157272338867],
      "type": "VEC3"
    },
    {
      "bufferView": 4,
      "byteOffset": 12,
      "componentType": 5126,
      "count": 490,
      "type": "VEC3"
    },
    {
      "bufferView": 5,
      "componentType": 5125,
      "count": 2388,
      "type": "SCALAR"
    },
    {
      "bufferView": 6,
      "componentType": 5126,
      "count": 5000,
      "max": [21.5269832611084, 107.82470703125, 13.293624877929688],
      "min": [-17.60580825805664, 7.562287330627441, -11.04069709777832],
      "type": "VEC3"
    },
    {
      "bufferView": 6,
      "byteOffset": 12,
      "componentType": 5126,
      "count": 5000,
      "type": "VEC3"
    },
    {
      "bufferView": 7,
      "componentType": 5125,
      "count": 26640,
      "type": "SCALAR"
    },
    {
      "bufferView": 8,
      "componentType": 5126,
      "count": 5550,
      "max": [27.640174865722656, 151.4679412841797, 14.477362632751465],
      "min": [-25.041309356689453, 89.67375183105469, -16.883642196655273],
      "type": "VEC3"
    },
    {
      "bufferView": 8,
      "byteOffset": 12,
      "componentType": 5126,
      "count": 5550,
      "type": "VEC3"
    },
    {
      "bufferView": 9,
      "componentType": 5125,
      "count": 29370,
      "type": "SCALAR"
    },
    {
      "bufferView": 10,
      "componentType": 5126,
      "count": 2483,
      "max": [31.31171226501465, 12.38052749633789, 21.06005859375],
      "min": [-10.380125045776367, 1.0016425848007202, -9.043052673339844],
      "type": "VEC3"
    },
    {
      "bufferView": 10,
      "byteOffset": 12,
      "componentType": 5126,
      "count": 2483,
      "type": "VEC3"
    },
    {
      "bufferView": 11,
      "componentType": 5125,
      "count": 12600,
      "type": "SCALAR"
    },
    {
      "bufferView": 12,
      "componentType": 5126,
      "count": 753,
      "max": [3.1665821075439453, 165.54498291015625, 7.697849750518799],
      "min": [-7.037480354309082, 162.89212036132813, 5.334067344665527],
      "type": "VEC3"
    },
    {
      "bufferView": 12,
      "byteOffset": 12,
      "componentType": 5126,
      "count": 753,
      "type": "VEC3"
    },
    {
      "bufferView": 12,
      "byteOffset": 24,
      "componentType": 5126,
      "count": 753,
      "type": "VEC2"
    },
    {
      "bufferView": 13,
      "componentType": 5125,
      "count": 2880,
      "type": "SCALAR"
    },
    {
      "bufferView": 14,
      "componentType": 5126,
      "count": 3266,
      "max": [1.0034867525100708, 0.3238370418548584, 0.8491577506065369],
      "min": [-1.6205254793167114, -0.5201755166053772, -0.008904248476028442],
      "type": "VEC3"
    },
    {
      "bufferView": 14,
      "byteOffset": 12,
      "componentType": 5126,
      "count": 3266,
      "type": "VEC3"
    },
    {
      "bufferView": 15,
      "componentType": 5125,
      "count": 9486,
      "type": "SCALAR"
    },
    {
      "bufferView": 16,
      "componentType": 5126,
      "count": 20754,
      "max": [0.5768294334411621, 0.32231584191322327, 3.6110379695892334],
      "min": [-0.6208804845809937, -0.38731426000595093, -0.11688730120658875],
      "type": "VEC3"
    },
    {
      "bufferView": 16,
      "byteOffset": 12,
      "componentType": 5126,
      "count": 20754,
      "type": "VEC3"
    },
    {
      "bufferView": 17,
      "componentType": 5125,
      "count": 116808,
      "type": "SCALAR"
    },
    {
      "bufferView": 18,
      "componentType": 5126,
      "count": 2215,
      "max": [0.07174965739250183, 0.10891003161668777, 0.04511917009949684],
      "min": [-0.07462899386882782, -0.10891710966825485, -0.04499850422143936],
      "type": "VEC3"
    },
    {
      "bufferView": 18,
      "byteOffset": 12,
      "componentType": 5126,
      "count": 2215,
      "type": "VEC3"
    },
    {
      "bufferView": 19,
      "componentType": 5125,
      "count": 7491,
      "type": "SCALAR"
    },
    {
      "bufferView": 20,
      "componentType": 5126,
      "count": 10742,
      "max": [0.0904226154088974, 0.06317918002605438, 0.09242095798254013],
      "min": [-0.0904226154088974, -0.07867879420518875, -0.09552383422851563],
      "type": "VEC3"
    },
    {
      "bufferView": 20,
      "byteOffset": 12,
      "componentType": 5126,
      "count": 10742,
      "type": "VEC3"
    },
    {
      "bufferView": 21,
      "componentType": 5125,
      "count": 50331,
      "type": "SCALAR"
    }
  ],
  "asset": {
    "version": "2.0"
  },
  "bufferViews": [
    {
      "buffer": 0,
      "byteLength": 36096,
      "byteStride": 32,
      "target": 34962
    },
    {
      "buffer": 0,
      "byteLength": 21792,
      "byteOffset": 36096,
      "target": 34963
    },
    {
      "buffer": 0,
      "byteLength": 246144,
      "byteOffset": 57888,
      "byteStride": 32,
      "target": 34962
    },
    {
      "buffer": 0,
      "byteLength": 170400,
      "byteOffset": 304032,
      "target": 34963
    },
    {
      "buffer": 0,
      "byteLength": 15680,
      "byteOffset": 474432,
      "byteStride": 32,
      "target": 34962
    },
    {
      "buffer": 0,
      "byteLength": 9552,
      "byteOffset": 490112,
      "target": 34963
    },
    {
      "buffer": 0,
      "byteLength": 160000,
      "byteOffset": 499664,
      "byteStride": 32,
      "target": 34962
    },
    {
      "buffer": 0,
      "byteLength": 106560,
      "byteOffset": 659664,
      "target": 34963
    },
    {
      "buffer": 0,
      "byteLength": 177600,
      "byteOffset": 766224,
      "byteStride": 32,
      "target": 34962
    },
    {
      "buffer": 0,
      "byteLength": 117480,
      "byteOffset": 943824,
      "target": 34963
    },
    {
      "buffer": 0,
      "byteLength": 79456,
      "byteOffset": 1061304,
      "byteStride": 32,
      "target": 34962
    },
    {
      "buffer": 0,
      "byteLength": 50400,
      "byteOffset": 1140760,
      "target": 34963
    },
    {
      "buffer": 0,
      "byteLength": 24096,
      "byteOffset": 1191160,
      "byteStride": 32,
      "target": 34962
    },
    {
      "buffer": 0,
      "byteLength": 11520,
      "byteOffset": 1215256,
      "target": 34963
    },
    {
      "buffer": 0,
      "byteLength": 104512,
      "byteOffset": 1226776,
      "byteStride": 32,
      "target": 34962
    },
    {
      "buffer": 0,
      "byteLength": 37944,
      "byteOffset": 1331288,
      "target": 34963
    },
    {
      "buffer": 0,
      "byteLength": 830160,
      "byteOffset": 1369232,
      "byteStride": 40,
      "target": 34962
    },
    {
      "buffer": 0,
      "byteLength": 467232,
      "byteOffset": 2199392,
      "target": 34963
    },
    {
      "buffer": 0,
      "byteLength": 70880,
      "byteOffset": 2666624,
      "byteStride": 32,
      "target": 34962
    },
    {
      "buffer": 0,
      "byteLength": 29964,
      "byteOffset": 2737504,
      "target": 34963
    },
    {
      "buffer": 0,
      "byteLength": 343744,
      "byteOffset": 2767468,
      "byteStride": 32,
      "target": 34962
    },
    {
      "buffer": 0,
      "byteLength": 201324,
      "byteOffset": 3111212,
      "target": 34963
    }
  ],
  "buffers": [
    {
      "byteLength": 3312536,
      "uri": "Medical_Statue.bin"
    }
  ],
  "materials": [
    {
      "name": "Doctor_Head",
      "pbrMetallicRoughness": {
        "baseColorFactor": [
          0.1529410034418106, 0.5058820247650146, 0.8039219975471497, 1.0
        ],
        "metallicFactor": 0.0
      }
    },
    {
      "name": "Doctor_Body",
      "pbrMetallicRoughness": {
        "baseColorFactor": [0.16078400611877441, 0.0, 0.8549020290374756, 1.0],
        "metallicFactor": 0.0
      }
    },
    {
      "name": "Ch16_eyelashes",
      "normalTexture": {
        "index": 0,
        "scale": -1.0
      },
      "pbrMetallicRoughness": {
        "baseColorFactor": [
          0.800000011920929, 0.800000011920929, 0.800000011920929, 1.0
        ],
        "baseColorTexture": {
          "index": 1
        },
        "metallicFactor": 0.0,
        "roughnessFactor": 0.5678070187568665
      }
    },
    {
      "name": "adskMatPedestel",
      "pbrMetallicRoughness": {
        "baseColorFactor": [0.5, 0.5, 0.5, 1.0],
        "metallicFactor": 0.0,
        "roughnessFactor": 0.800000011920929
      }
    },
    {
      "name": "Human_Body",
      "pbrMetallicRoughness": {
        "baseColorFactor": [
          0.6862750053405762, 0.47843098640441895, 0.34117600321769714, 1.0
        ],
        "metallicFactor": 0.0,
        "roughnessFactor": 0.8999999761581421
      }
    },
    {
      "name": "adskMatHololens",
      "pbrMetallicRoughness": {
        "baseColorFactor": [
          0.0823528990149498, 0.0823528990149498, 0.0823528990149498, 1.0
        ],
        "metallicFactor": 0.0,
        "roughnessFactor": 0.5
      }
    },
    {
      "name": "adskMatHeart",
      "pbrMetallicRoughness": {
        "baseColorFactor": [0.5, 0.2553960084915161, 0.2553960084915161, 1.0],
        "metallicFactor": 0.0,
        "roughnessFactor": 0.800000011920929
      }
    }
  ],
  "meshes": [
    {
      "name": "Ch16_Mask",
      "primitives": [
        {
          "attributes": {
            "NORMAL": 1,
            "POSITION": 0
          },
          "indices": 2,
          "material": 0,
          "mode": 4
        }
      ]
    },
    {
      "name": "Ch16_Body1",
      "primitives": [
        {
          "attributes": {
            "NORMAL": 4,
            "POSITION": 3
          },
          "indices": 5,
          "material": 1,
          "mode": 4
        }
      ]
    },
    {
      "name": "Ch16_Cap",
      "primitives": [
        {
          "attributes": {
            "NORMAL": 7,
            "POSITION": 6
          },
          "indices": 8,
          "material": 0,
          "mode": 4
        }
      ]
    },
    {
      "name": "Ch16_Pants",
      "primitives": [
        {
          "attributes": {
            "NORMAL": 10,
            "POSITION": 9
          },
          "indices": 11,
          "material": 1,
          "mode": 4
        }
      ]
    },
    {
      "name": "Ch16_Shirt",
      "primitives": [
        {
          "attributes": {
            "NORMAL": 13,
            "POSITION": 12
          },
          "indices": 14,
          "material": 1,
          "mode": 4
        }
      ]
    },
    {
      "name": "Ch16_Shoes",
      "primitives": [
        {
          "attributes": {
            "NORMAL": 16,
            "POSITION": 15
          },
          "indices": 17,
          "material": 0,
          "mode": 4
        }
      ]
    },
    {
      "name": "Ch16_Eyelashes",
      "primitives": [
        {
          "attributes": {
            "NORMAL": 19,
            "POSITION": 18,
            "TEXCOORD_0": 20
          },
          "indices": 21,
          "material": 2,
          "mode": 4
        }
      ]
    },
    {
      "name": "Pedestel",
      "primitives": [
        {
          "attributes": {
            "NORMAL": 23,
            "POSITION": 22
          },
          "indices": 24,
          "material": 3,
          "mode": 4
        }
      ]
    },
    {
      "name": "Male_Body_No_Genitals_Geo005",
      "primitives": [
        {
          "attributes": {
            "NORMAL": 26,
            "POSITION": 25
          },
          "indices": 27,
          "material": 4,
          "mode": 4
        }
      ]
    },
    {
      "name": "Hololens",
      "primitives": [
        {
          "attributes": {
            "NORMAL": 29,
            "POSITION": 28
          },
          "indices": 30,
          "material": 5,
          "mode": 4
        }
      ]
    },
    {
      "name": "Heart",
      "primitives": [
        {
          "attributes": {
            "NORMAL": 32,
            "POSITION": 31
          },
          "indices": 33,
          "material": 6,
          "mode": 4
        }
      ]
    }
  ],
  "nodes": [
    {
      "mesh": 0,
      "name": "Ch16_Mask"
    },
    {
      "children": [0],
      "matrix": [
        0.009999999776482582, 0.0, 0.0, 0.0, 0.0, 0.009999999776482582,
        4.3711387287537207e-10, 0.0, 0.0, -4.3711387287537207e-10,
        0.009999999776482582, 0.0, -1.2975746393203735, 0.0,
        -0.19794869422912598, 1.0
      ]
    },
    {
      "mesh": 1,
      "name": "Ch16_Body1"
    },
    {
      "children": [2],
      "matrix": [
        0.009999999776482582, 0.0, 0.0, 0.0, 0.0, 0.009999999776482582,
        4.3711387287537207e-10, 0.0, 0.0, -4.3711387287537207e-10,
        0.009999999776482582, 0.0, -1.2975746393203735, 0.0,
        -0.19794869422912598, 1.0
      ]
    },
    {
      "mesh": 2,
      "name": "Ch16_Cap"
    },
    {
      "children": [4],
      "matrix": [
        0.009999999776482582, 0.0, 0.0, 0.0, 0.0, 0.009999999776482582,
        4.3711387287537207e-10, 0.0, 0.0, -4.3711387287537207e-10,
        0.009999999776482582, 0.0, -1.2975746393203735, 0.0,
        -0.19794869422912598, 1.0
      ]
    },
    {
      "mesh": 3,
      "name": "Ch16_Pants"
    },
    {
      "children": [6],
      "matrix": [
        0.009999999776482582, 0.0, 0.0, 0.0, 0.0, 0.009999999776482582,
        4.3711387287537207e-10, 0.0, 0.0, -4.3711387287537207e-10,
        0.009999999776482582, 0.0, -1.2975746393203735, 0.0,
        -0.19794869422912598, 1.0
      ]
    },
    {
      "mesh": 4,
      "name": "Ch16_Shirt"
    },
    {
      "children": [8],
      "matrix": [
        0.009999999776482582, 0.0, 0.0, 0.0, 0.0, 0.009999999776482582,
        4.3711387287537207e-10, 0.0, 0.0, -4.3711387287537207e-10,
        0.009999999776482582, 0.0, -1.2975746393203735, 0.0,
        -0.19794869422912598, 1.0
      ]
    },
    {
      "mesh": 5,
      "name": "Ch16_Shoes"
    },
    {
      "children": [10],
      "matrix": [
        0.009999999776482582, 0.0, 0.0, 0.0, 0.0, 0.009999999776482582,
        4.3711387287537207e-10, 0.0, 0.0, -4.3711387287537207e-10,
        0.009999999776482582, 0.0, -1.2975746393203735, 0.0,
        -0.19794869422912598, 1.0
      ]
    },
    {
      "mesh": 6,
      "name": "Ch16_Eyelashes"
    },
    {
      "children": [12],
      "matrix": [
        0.009999999776482582, 0.0, 0.0, 0.0, 0.0, 0.009999999776482582,
        4.3711387287537207e-10, 0.0, 0.0, -4.3711387287537207e-10,
        0.009999999776482582, 0.0, -1.2975746393203735, 0.0,
        -0.19794869422912598, 1.0
      ]
    },
    {
      "mesh": 7,
      "name": "Pedestel"
    },
    {
      "children": [14],
      "matrix": [
        1.0, 0.0, 0.0, 0.0, 0.0, 0.0, -1.0, 0.0, 0.0, 1.0, 0.0, 0.0,
        -1.5561637878417969, -2.3894847345218295e-7, 0.3241477906703949, 1.0
      ]
    },
    {
      "mesh": 8,
      "name": "Male_Body_No_Genitals_Geo005"
    },
    {
      "children": [16],
      "matrix": [
        -2.1633693947364918e-8, -0.0, 0.4949212074279785, 0.0,
        -1.6716766992885818e-7, -0.4949212074279785, -7.307131313330668e-15,
        0.0, 0.4949212074279785, -1.6716766992885818e-7, 2.1633693947364918e-8,
        0.0, -2.584480047225952, 0.9394328594207764, 0.3185046315193176, 1.0
      ]
    },
    {
      "mesh": 9,
      "name": "Hololens"
    },
    {
      "children": [18],
      "matrix": [
        -1.2890468835830688, -0.16839802265167242, -1.9464067690933007e-7, 0.0,
        -2.0131319899974187e-7, 3.8416590797396566e-8, 1.2999999523162844, 0.0,
        -0.16839802265167242, 1.2890468835830688, -6.417041475970109e-8, 0.0,
        -1.3185417652130127, 1.6705230474472046, -0.21781346201896667, 1.0
      ]
    },
    {
      "mesh": 10,
      "name": "Heart"
    },
    {
      "children": [20],
      "matrix": [
        0.855050563812256, 0.0, 2.349231481552124, 0.0, 2.349231481552124, 0.0,
        -0.855050563812256, 0.0, 0.0, 2.5, 0.0, 0.0, -1.2465633153915405,
        1.2547690868377686, 0.11951392889022827, 1.0
      ]
    }
  ],
  "samplers": [
    {
      "magFilter": 9729,
      "minFilter": 9729,
      "wrapS": 10497,
      "wrapT": 10497
    },
    {
      "magFilter": 9729,
      "minFilter": 9729,
      "wrapS": 10497,
      "wrapT": 10497
    }
  ],
  "scenes": [
    {
      "nodes": [1, 3, 5, 7, 9, 11, 13, 15, 17, 19, 21]
    }
  ],
  "textures": [
    {
      "name": "texture_source0_sampler0"
    },
    {
      "name": "texture_source1_sampler1"
    }
  ]
}
